<svg width="23" height="24" viewBox="0 0 23 24" xmlns="http://www.w3.org/2000/svg"><title>cart</title><g stroke-width="1.833" stroke="#FFF" fill="none" fill-rule="evenodd"><path d="M9.642 22.66c.99 0 1.794-.848 1.794-1.893 0-1.044-.803-1.892-1.794-1.892s-1.794.848-1.794 1.892c0 1.046.803 1.893 1.794 1.893zm6.848 0c.99 0 1.794-.848 1.794-1.893 0-1.044-.803-1.892-1.794-1.892s-1.794.848-1.794 1.892c0 1.046.803 1.893 1.794 1.893zM4.084 3.75h17.25c.253 0 .4.035.326.277l-2.629 8.696c-.072.238-.27.527-.444.527H6.831c-.173 0-.37-.361-.444-.604L3.758 4.113c-.073-.238.072-.363.326-.363z"/><path d="M4.636 3.312L3.74 1m3.163 12.375c-.166 0-.355.192-.426.438l-1.368 3.82M1 1h2.435m1.674 16.5H19.23" stroke-linecap="round"/></g></svg>