<svg id="Layer_1" xmlns="http://www.w3.org/2000/svg" viewBox="0 0 635.9 195.5"><style>.st0{fill:url(#XMLID_5_)}.st1{fill:url(#XMLID_6_)}.st2{fill:url(#XMLID_8_)}.st3{fill:url(#XMLID_9_)}.st4{fill:url(#XMLID_11_)}.st5{fill:url(#XMLID_13_)}.st6{fill:none}.st7{fill:#4d4d4d}</style><g id="XMLID_1_"><linearGradient id="XMLID_5_" gradientUnits="userSpaceOnUse" x1="162.184" y1="69.937" x2="40.168" y2="132.141" gradientTransform="matrix(1 0 0 -1 0 243.4)"><stop offset="0" stop-color="#6ac0ec"/><stop offset="1" stop-color="#0071bc"/></linearGradient><path id="XMLID_64_" class="st0" d="M149.3 135.6c0 .6 0 1.2-.1 1.9-.8 13.9-10.4 25.5-23.3 29.2-1.4.1-2.8.1-4.2.1h-39c-7-.1-13.2-.7-18.8-1.9-10.9-2.2-19.2-6.4-24.9-12.2-4.3-4.3-7.1-9.4-8.6-15.2-1-3.9-1.5-8-1.3-12.4 5.4 5.1 12 9 19.4 11.2 1.7.5 3.5.9 5.3 1.2h9c.1 0 .2.1.3.1v-.1h39v-.2h27.4c10 0 16.6-4.9 16.8-12.2 0-1.2.3-2.3-.6-4.2.7.8.8 2.1 1.3 3 .1.2.2.5.3.7 1.3 3.5 2 7.2 2 11z"/><linearGradient id="XMLID_6_" gradientUnits="userSpaceOnUse" x1="172.974" y1="24.013" x2="149.61" y2="146.774" gradientTransform="matrix(1 0 0 -1 0 243.4)"><stop offset="0" stop-color="#ed1c24"/><stop offset="1" stop-color="#f37321"/></linearGradient><path id="XMLID_48_" class="st1" d="M131.1 195.5h-11.9c17.2-4.1 30.7-17.7 34.6-34.9 4.3-2 7.8-4.5 10.8-7.3 4.6-4.4 7.7-9.8 9.3-15.9 2.3-8.6 1.6-18.6-1.8-29.5-1.4-4.5-3.3-9.2-5.7-14L149 65.4c-.9-1.8-19.9-18.8-31-18.8-4.7 0-9.2 1-13.3 2.9-.9.4-1.7.8-2.6 1.3-2.7 1.5-5.2 3.5-7.4 5.7 0-.1 5.9-9.2 7.4-10.7l.3-.3c5.5-5.3 12.4-9.3 20-11.4 4-1.1 8.2-1.7 12.5-1.7 14.9 0 29 6.8 38.3 17.6l10 19.6L195.1 93c1.1 2.1 2.1 4.3 3 6.4 18.3 49.4-10.8 92.8-67 96.1z"/><linearGradient id="XMLID_8_" gradientUnits="userSpaceOnUse" x1="197.993" y1="264.141" x2="61.143" y2="168.442" gradientTransform="matrix(1 0 0 -1 0 243.4)"><stop offset="0" stop-color="#cab144"/><stop offset="1" stop-color="#f2dc18"/></linearGradient><path id="XMLID_47_" class="st2" d="M173.3 50C164 39.3 149.9 32.4 135 32.4c-4.3 0-8.5.6-12.5 1.7-3.9-2.2-8-3.8-12.4-4.6-2.5-.5-5.2-.7-7.9-.7-3.1 0-6 .3-8.8.9-8.9 1.9-16.7 6.8-23.4 14.1-3.5 3.9-6.8 8.4-9.8 13.5L43.4 84.8s-4.2 5.7-5.5 9.1c-1.3 3.3-2 6.9-2 10.7 0 11 6.5 21.8 14.9 27.7 3.6 2.5 7.6 4.3 12 5.2 0 0-6.7.2-9 0-1.8-.2-3.6-.7-5.3-1.2-7.4-2.1-14-6-19.4-11.2-9.1-8.6-14.8-20.9-14.8-34.5 0-5.2.8-10.3 2.4-15l6.2-12.3 12.5-24.9C45.7 20.5 61.2 8.9 78.2 3.5 84.8 1.4 91.7.3 98.5 0h3.7c7.7.1 15.3 1.4 22.7 3.8 17.1 5.6 32.6 17.4 42.9 35.4l5.5 10.8z"/><linearGradient id="XMLID_9_" gradientUnits="userSpaceOnUse" x1="-31.177" y1="129.746" x2="154.112" y2="72.567" gradientTransform="matrix(1 0 0 -1 0 243.4)"><stop offset="0" stop-color="#6ac0ec"/><stop offset="1" stop-color="#0071bc"/></linearGradient><path id="XMLID_46_" class="st3" d="M155.1 150c0 3.6-.4 7.2-1.2 10.6-4 17.2-17.5 30.8-34.6 34.9H73.1c-59.3-3.2-88.7-50.9-64.7-103.4l8.4-16.6c-1.6 4.7-2.4 9.8-2.4 15 0 13.6 5.7 25.8 14.8 34.5-.2 4.4.3 8.5 1.3 12.4 1.5 5.8 4.4 10.9 8.6 15.2 5.7 5.8 14 10 24.9 12.3 5.6 1.2 11.8 1.8 18.8 1.9 0 0 41.9-.1 43.3-.1 12.9-3.7 22.5-15.3 23.3-29.2 0-.6.1-1.2.1-1.9 0-3.9-.7-7.6-1.9-11-.1-.2-1.1-2.7-1.2-3 .2.2 1.3 2.6 1.4 2.8 2.6 3.9 4.5 8.4 5.8 13 .9 4.1 1.5 8.3 1.5 12.6z"/><linearGradient id="XMLID_11_" gradientUnits="userSpaceOnUse" x1="122.131" y1="189.53" x2="149.72" y2="98.651" gradientTransform="matrix(1 0 0 -1 0 243.4)"><stop offset="0" stop-color="#ed1c24"/><stop offset="1" stop-color="#f37321"/></linearGradient><path id="XMLID_32_" class="st4" d="M174 137.5c-1.6 6.1-4.7 11.4-9.3 15.9-3 2.8-6.6 5.3-10.8 7.3.8-3.4 1.2-6.9 1.2-10.6 0-4.3-.6-8.6-1.7-12.6-1.3-4.6-9.5-20.3-9.5-20.3l-1.2-2.4-5.5-9.5v-.1l-22.3-38.7c-.4-.7-.9-1.5-1.3-2.1v-.1c-3.2-4.6-7.2-6.9-11.2-7.1-1.8-.1-3.7.3-5.4 1.2-2.1 1-4.1 2.6-5.9 5 .2-.5 3.7-6.7 4-6.9 2.1-2.2 4.6-4.2 7.4-5.7.8-.5 1.7-.9 2.6-1.3 4-1.8 8.6-2.9 13.3-2.9 11.2 0 21.6 5.3 27.9 13.6l20.5 33.7c2.4 4.8 4.3 9.5 5.7 14 3.1 11 3.8 21 1.5 29.6z"/><linearGradient id="XMLID_13_" gradientUnits="userSpaceOnUse" x1="62.903" y1="110.614" x2="100.359" y2="199.723" gradientTransform="matrix(1 0 0 -1 0 243.4)"><stop offset="0" stop-color="#cab144"/><stop offset="1" stop-color="#f2dc18"/></linearGradient><path id="XMLID_31_" class="st5" d="M122.5 34.1c-7.6 2.1-14.5 6.1-20 11.4l-.3.3c-1.5 1.4-7.4 10.5-7.4 10.7-.2.2-3.8 6.4-4 6.9-.6.8-1.2 1.7-1.8 2.6-.1.2-.2.3-.3.5l-1.5 2.6-4.2 7.2-22.1 38.4c-.2.4-.5.9-.7 1.3-4.3 8.4-2.5 15.5 3.8 19 2 1.1 4.5 1.8 7.4 2.1.8.1 1.7.1 2.6.1h28.3v.2H62.9c-4.4-.9-8.5-2.7-12-5.2-8.4-5.8-14.9-16.7-14.9-27.7 0-3.8.7-7.4 2-10.7 1.3-3.3 5.5-9.1 5.5-9.1l16.8-27.5c3-5.2 6.2-9.7 9.8-13.5 6.7-7.3 14.5-12.2 23.4-14.1 2.8-.6 5.8-.9 8.8-.9 2.7 0 5.4.3 7.9.7 4.3 1 8.4 2.5 12.3 4.7z"/><path id="XMLID_30_" class="st6" d="M36.8 184.7v-4.2"/><path id="XMLID_29_" class="st6" d="M34.7 93.1v-2.4"/><g id="XMLID_3_"><path id="XMLID_25_" class="st7" d="M233.7 122.9c.2-3 .4-7.5.4-11.5V57.7h8v28h.2c2.8-5 8-8.2 15.1-8.2 11 0 18.8 9.2 18.7 22.7 0 15.9-10 23.8-19.9 23.8-6.4 0-11.6-2.5-14.9-8.3h-.3l-.4 7.3-6.9-.1zm8.4-17.8c0 1 .2 2 .4 2.9 1.6 5.6 6.2 9.4 12.1 9.4 8.4 0 13.5-6.9 13.5-17.1 0-8.9-4.6-16.5-13.2-16.5-5.5 0-10.6 3.8-12.3 9.9-.2.9-.5 2-.5 3.3v8.1z"/><path id="XMLID_23_" class="st7" d="M323.4 110.8c0 4.6.1 8.6.4 12.1h-7.2l-.5-7.2h-.1c-2.1 3.6-6.8 8.3-14.7 8.3-7 0-15.3-3.8-15.3-19.4v-26h8.1v24.6c0 8.4 2.6 14.1 9.9 14.1 5.4 0 9.2-3.8 10.6-7.3.5-1.2.7-2.7.7-4.1V78.7h8.1v32.1z"/><path id="XMLID_22_" class="st7" d="M372.7 78.5l-12.1 31.6c-2.6 6.8-4.8 12.2-7 16.5l-8 16.3-6.5-3.2.9-1.9 5.5-11c.6-.9 1.8-3.2 1.8-3.4.4-.8.6-1.4.6-1.9s-.2-1.1-.5-2.1L331 78.5h8.8l9.7 26.2c1 2.9 2.1 6.4 2.9 9.1h.2c.8-2.7 1.7-6.1 2.8-9.3l8.8-26h8.5z"/><path id="XMLID_20_" class="st7" d="M635.9 77.1l-12.1 31.6c-2.6 6.8-4.8 12.2-7 16.5l-8 16.3-6.5-3.2.9-1.9 5.5-11c.6-.9 1.8-3.2 1.8-3.4.4-.8.6-1.4.6-1.9s-.2-1.1-.5-2.1l-16.4-40.9h8.8l9.7 26.2c1 2.9 2.1 6.4 2.9 9.1h.2c.8-2.7 1.7-6.1 2.8-9.3l8.8-26h8.5z"/><path id="XMLID_18_" class="st7" d="M378.4 114.6c2.4 1.6 6.6 3.2 10.6 3.2 5.9 0 8.6-2.9 8.6-6.6 0-3.9-2.3-6-8.3-8.2-8-2.8-11.7-7.2-11.7-12.6 0-7.2 5.8-13 15.3-13 4.5 0 8.4 1.3 10.9 2.8l-2 5.9c-1.7-1.1-5-2.6-9.1-2.6-4.8 0-7.4 2.8-7.4 6.1 0 3.7 2.7 5.3 8.4 7.5 7.7 2.9 11.6 6.8 11.6 13.4 0 7.8-6.1 13.3-16.6 13.3-4.9 0-9.4-1.2-12.5-3l2.2-6.2z"/><path id="XMLID_15_" class="st7" d="M420.3 102.2c.2 10.9 7.2 15.4 15.2 15.4 5.8 0 9.3-1 12.3-2.3l1.4 5.8c-2.8 1.3-7.7 2.7-14.8 2.7-13.7 0-21.8-9-21.8-22.4s7.9-23.9 20.8-23.9c14.5 0 18.3 12.7 18.3 20.9 0 1.6-.2 2.9-.3 3.8h-31.1zm23.7-5.8c.1-5.1-2.1-13.1-11.2-13.1-8.2 0-11.7 7.5-12.4 13.1H444z"/><path id="XMLID_12_" class="st7" d="M461.8 57.8h8.1v65.1h-8.1V57.8z"/><path id="XMLID_10_" class="st7" d="M483.5 57.8h8.1v65.1h-8.1V57.8z"/><path id="XMLID_7_" class="st7" d="M505.1 93c0-5.7-.2-10.3-.4-14.5h7.2l.4 7.6h.2c3.3-5.4 8.5-8.6 15.8-8.6 10.7 0 18.8 9.1 18.8 22.6 0 16-9.7 23.8-20.2 23.8-5.9 0-11-2.6-13.7-7h-.2V141h-8V93h.1zm8 11.8c0 1.2.2 2.3.4 3.3 1.5 5.6 6.3 9.4 12.1 9.4 8.5 0 13.5-7 13.5-17.2 0-8.9-4.7-16.5-13.2-16.5-5.5 0-10.6 3.9-12.2 10-.3 1-.6 2.2-.6 3.3v7.7z"/><path id="XMLID_4_" class="st7" d="M581.9 122.9l-.6-5.6h-.3c-2.5 3.5-7.2 6.6-13.6 6.6-9 0-13.6-6.3-13.6-12.7 0-10.7 9.5-16.6 26.7-16.5v-1c0-3.7-1-10.3-10.1-10.3-4.1 0-8.4 1.3-11.6 3.3l-1.8-5.3c3.7-2.4 9-3.9 14.6-3.9 13.6 0 16.9 9.3 16.9 18.2v16.6c0 3.9.2 7.6.7 10.6h-7.3zm-1.2-22.7c-8.8-.2-18.8 1.4-18.8 10 0 5.2 3.5 7.7 7.6 7.7 5.8 0 9.4-3.7 10.7-7.4.3-.8.5-1.7.5-2.6v-7.7z"/></g></g></svg>