<svg id="Layer_1" xmlns="http://www.w3.org/2000/svg" viewBox="0 0 203.5 195.5"><style>.st0{fill:url(#XMLID_2_)}.st1{fill:url(#XMLID_3_)}.st2{fill:url(#XMLID_4_)}.st3{fill:url(#XMLID_5_)}.st4{fill:url(#XMLID_6_)}.st5{fill:url(#XMLID_7_)}.st6{fill:none}</style><linearGradient id="XMLID_2_" gradientUnits="userSpaceOnUse" x1="162.222" y1="71.612" x2="40.206" y2="133.816" gradientTransform="matrix(1 0 0 -1 0 245)"><stop offset="0" stop-color="#6ac0ec"/><stop offset="1" stop-color="#0071bc"/></linearGradient><path id="XMLID_42_" class="st0" d="M149.3 135.6c0 .6 0 1.2-.1 1.9-.8 13.9-10.4 25.5-23.3 29.2-1.4.1-2.8.1-4.2.1h-39c-7-.1-13.2-.7-18.8-1.9-10.9-2.3-19.2-6.5-24.9-12.3-4.3-4.3-7.1-9.4-8.6-15.2-1-3.9-1.5-8-1.3-12.4 5.4 5.1 12 9 19.4 11.2 1.7.5 3.5.9 5.3 1.2h9c.1 0 .2.1.3.1v-.1h39v-.2h27.4c10 0 16.6-4.9 16.8-12.2 0-1.2.3-2.3-.6-4.2.7.8.8 2.1 1.3 3 .1.2.2.5.3.7 1.3 3.6 2 7.3 2 11.1z"/><linearGradient id="XMLID_3_" gradientUnits="userSpaceOnUse" x1="172.975" y1="25.608" x2="149.611" y2="148.369" gradientTransform="matrix(1 0 0 -1 0 245)"><stop offset="0" stop-color="#ed1c24"/><stop offset="1" stop-color="#f37321"/></linearGradient><path id="XMLID_41_" class="st1" d="M131.1 195.5h-11.9c17.2-4.1 30.7-17.7 34.6-34.9 4.3-2 7.8-4.5 10.8-7.3 4.6-4.4 7.7-9.8 9.3-15.9 2.3-8.6 1.6-18.6-1.8-29.5-1.4-4.5-3.3-9.2-5.7-14L149 65.4c-.9-1.8-19.9-18.8-31-18.8-4.7 0-9.2 1-13.3 2.9-.9.4-1.7.8-2.6 1.3-2.7 1.5-5.2 3.5-7.4 5.7 0-.1 5.9-9.2 7.4-10.7l.3-.3c5.5-5.3 12.4-9.3 20-11.4 4-1.1 8.2-1.7 12.5-1.7 14.9 0 29 6.8 38.3 17.6l10 19.6L195.1 93c1.1 2.1 2.1 4.3 3 6.4 18.3 49.4-10.8 92.8-67 96.1z"/><linearGradient id="XMLID_4_" gradientUnits="userSpaceOnUse" x1="197.988" y1="265.738" x2="61.139" y2="170.039" gradientTransform="matrix(1 0 0 -1 0 245)"><stop offset="0" stop-color="#cab144"/><stop offset="1" stop-color="#f2dc18"/></linearGradient><path id="XMLID_40_" class="st2" d="M173.3 50C164 39.3 149.9 32.4 135 32.4c-4.3 0-8.5.6-12.5 1.7-3.9-2.2-8-3.8-12.4-4.6-2.5-.5-5.2-.7-7.9-.7-3.1 0-6 .3-8.8.9-8.9 1.9-16.7 6.8-23.4 14.1-3.5 3.9-6.8 8.4-9.8 13.5L43.4 84.8s-4.2 5.7-5.5 9.1c-1.3 3.3-2 6.9-2 10.7 0 11 6.5 21.8 14.9 27.7 3.6 2.5 7.6 4.3 12 5.2 0 0-6.7.2-9 0-1.8-.2-3.6-.7-5.3-1.2-7.4-2.1-14-6-19.4-11.2-9.1-8.6-14.8-20.9-14.8-34.5 0-5.2.8-10.3 2.4-15l6.2-12.3 12.5-24.9C45.7 20.5 61.2 8.9 78.2 3.5 84.8 1.4 91.7.3 98.5 0h3.7c7.7.1 15.3 1.4 22.7 3.8 17.1 5.6 32.6 17.4 42.9 35.4l5.5 10.8z"/><linearGradient id="XMLID_5_" gradientUnits="userSpaceOnUse" x1="-31.178" y1="131.347" x2="154.111" y2="74.167" gradientTransform="matrix(1 0 0 -1 0 245)"><stop offset="0" stop-color="#6ac0ec"/><stop offset="1" stop-color="#0071bc"/></linearGradient><path id="XMLID_39_" class="st3" d="M155.1 150c0 3.6-.4 7.2-1.2 10.6-4 17.2-17.5 30.8-34.6 34.9H73.1c-59.3-3.2-88.7-50.9-64.7-103.4l8.4-16.6c-1.6 4.7-2.4 9.8-2.4 15 0 13.6 5.7 25.8 14.8 34.5-.2 4.4.3 8.5 1.3 12.4 1.5 5.8 4.4 10.9 8.6 15.2 5.7 5.8 14 10 24.9 12.3 5.6 1.2 11.8 1.8 18.8 1.9 0 0 41.9-.1 43.3-.1 12.9-3.7 22.5-15.3 23.3-29.2 0-.6.1-1.2.1-1.9 0-3.9-.7-7.6-1.9-11-.1-.2-1.1-2.7-1.2-3 .2.2 1.3 2.6 1.4 2.8 2.6 3.9 4.5 8.4 5.8 13 .9 4.1 1.5 8.3 1.5 12.6z"/><linearGradient id="XMLID_6_" gradientUnits="userSpaceOnUse" x1="121.949" y1="191.07" x2="149.538" y2="100.191" gradientTransform="matrix(1 0 0 -1 0 245)"><stop offset="0" stop-color="#ed1c24"/><stop offset="1" stop-color="#f37321"/></linearGradient><path id="XMLID_38_" class="st4" d="M174 137.5c-1.6 6.1-4.7 11.4-9.3 15.9-3 2.8-6.6 5.3-10.8 7.3.8-3.4 1.2-6.9 1.2-10.6 0-4.3-.6-8.6-1.7-12.6-1.3-4.6-9.5-20.3-9.5-20.3l-1.2-2.4-5.5-9.5v-.1l-22.5-38.7c-.4-.7-.9-1.5-1.3-2.1v-.1c-3.2-4.6-7.2-6.9-11.2-7.1-1.8-.1-3.7.3-5.4 1.2-2.1 1-4.1 2.6-5.9 5 .2-.5 3.7-6.7 4-6.9 2.1-2.2 4.6-4.2 7.4-5.7.8-.5 1.7-.9 2.6-1.3 4-1.8 8.6-2.9 13.3-2.9 11.2 0 21.6 5.3 27.9 13.6l20.5 33.7c2.4 4.8 4.3 9.5 5.7 14 3.3 11 4 21 1.7 29.6z"/><linearGradient id="XMLID_7_" gradientUnits="userSpaceOnUse" x1="62.9" y1="112.208" x2="100.356" y2="201.317" gradientTransform="matrix(1 0 0 -1 0 245)"><stop offset="0" stop-color="#cab144"/><stop offset="1" stop-color="#f2dc18"/></linearGradient><path id="XMLID_37_" class="st5" d="M122.5 34.1c-7.6 2.1-14.5 6.1-20 11.4l-.3.3c-1.5 1.4-7.4 10.5-7.4 10.7-.2.2-3.8 6.4-4 6.9-.6.8-1.2 1.7-1.8 2.6-.1.2-.2.3-.3.5l-1.5 2.6-4.2 7.2-22.1 38.4c-.2.4-.5.9-.7 1.3-4.3 8.4-2.5 15.5 3.8 19 2 1.1 4.5 1.8 7.4 2.1.8.1 1.7.1 2.6.1h28.3v.2H62.9c-4.4-.9-8.5-2.7-12-5.2-8.4-5.8-14.9-16.7-14.9-27.7 0-3.8.7-7.4 2-10.7 1.3-3.3 5.5-9.1 5.5-9.1l16.8-27.5c3-5.2 6.2-9.7 9.8-13.5 6.7-7.3 14.5-12.2 23.4-14.1 2.8-.6 5.8-.9 8.8-.9 2.7 0 5.4.3 7.9.7 4.3 1 8.4 2.5 12.3 4.7z"/><path id="XMLID_36_" class="st6" d="M36.8 184.7v-4.2"/><path id="XMLID_35_" class="st6" d="M34.7 93.1v-2.4"/></svg>