<?xml version="1.0" encoding="UTF-8"?>
<svg width="23px" height="24px" viewBox="0 0 23 24" version="1.1" xmlns="http://www.w3.org/2000/svg" xmlns:xlink="http://www.w3.org/1999/xlink">
    <!-- Generator: Sketch 40.1 (33804) - http://www.bohemiancoding.com/sketch -->
    <title>cart</title>
    <desc>Created with Sketch.</desc>
    <defs></defs>
    <g id="Welcome" stroke="none" stroke-width="1" fill="none" fill-rule="evenodd">
        <g id="Homepage" transform="translate(-843.000000, -24.000000)" stroke-width="1.83333333" stroke="#FFFFFF">
            <g id="header" transform="translate(-78.000000, 0.000000)">
                <g id="cart">
                    <g transform="translate(921.000000, 17.000000)">
                        <g transform="translate(0.000000, 7.000000)">
                            <path d="M9.64177391,22.66 C10.6327304,22.66 11.4357217,21.8125 11.4357217,20.7675 C11.4357217,19.7225 10.6327304,18.875 9.64177391,18.875 C8.65081739,18.875 7.84782609,19.7225 7.84782609,20.7675 C7.84782609,21.8125 8.65081739,22.66 9.64177391,22.66 L9.64177391,22.66 Z" id="Stroke-224"></path>
                            <path d="M16.4896,22.66 C17.4805565,22.66 18.2835478,21.8125 18.2835478,20.7675 C18.2835478,19.7225 17.4805565,18.875 16.4896,18.875 C15.4986435,18.875 14.6956522,19.7225 14.6956522,20.7675 C14.6956522,21.8125 15.4986435,22.66 16.4896,22.66 L16.4896,22.66 Z" id="Stroke-226"></path>
                            <path d="M4.08428059,3.75 L21.3342284,3.75 C21.5869589,3.75 21.7345067,3.785 21.6604893,4.0275 L19.031411,12.723 C18.9588545,12.961 18.7606632,13.25 18.5873067,13.25 L6.83120233,13.25 C6.65833277,13.25 6.46111538,12.8885 6.38709799,12.646 L3.75801972,4.1135 C3.68497625,3.8755 3.83008929,3.75 4.08428059,3.75 L4.08428059,3.75 Z" id="Stroke-228"></path>
                            <path d="M4.63610435,3.312 L3.73913043,1" id="Stroke-230" stroke-linecap="round"></path>
                            <path d="M6.90264348,13.375 C6.73707826,13.375 6.54765217,13.567 6.47655652,13.813 L5.10869565,17.633" id="Stroke-232" stroke-linecap="round"></path>
                            <path d="M1,1 L3.43478261,1" id="Stroke-234" stroke-linecap="round"></path>
                            <path d="M5.10869565,17.5 L19.2304348,17.5" id="Stroke-236" stroke-linecap="round"></path>
                        </g>
                    </g>
                </g>
            </g>
        </g>
    </g>
</svg>